# xmcd CD database file
#
# Track frame offsets:
#	182
#	12322
#	21852
#	41790
#	54160
#	70377
#	88982
#	109842
#	123400
#	141197
#	158130
#	179150
#	197345
#	211827
#	228775
#	245672
#	259522
#	275952
#	290750
#	312002
#
# Disc length: 4598 seconds
#
# Revision: 1
# Processed by: cddbd v1.5.2PL0 Copyright (c) Steve Scherf et al.
# Submitted via: CDex 1.70beta2
#
DISCID=2a11f414
DTITLE=Various Artist - Tresors Gospel [CD 4]
DYEAR=2001
DGENRE=Gospel
TTITLE0=Zion Harmonizers - Swing Low Sweet Chariot
TTITLE1=Jeanne Lee - He's Got the Whole World in His Hands
TTITLE2=The Heavenly Stars - Down By the Riverside
TTITLE3=The New Orleans Spiritualettes - I believe
TTITLE4=Clyde Wright - Heaven, Heaven
TTITLE5=Bishop Paul S. Morton Sr. - We Shall Overcome
TTITLE6=The Johnny Thompson Singers - Won't It Be Wonderful
TTITLE7=Jo Ann Pickens - Nobody Knows the Trouble I See - O Freedom
TTITLE8=The Palata Singers - Sango Yesu Kristo
TTITLE9=Soul Gospel and Adele Belmont - Sometimes I Feel Like a Motherless Child
TTITLE10=Jo Ann Pickens and Voices Choeur - Glory, Glory Hallelujah
TTITLE11=Black and White Gospel Singers - Thank You Jesus
TTITLE12=Segan' - Keep Your Hand Oh Lord
TTITLE13=Accord - No More Sorrow
TTITLE14=The Gospel Young Singers - No Never
TTITLE15=Zion Harmonizers - Tied Up In Jesus
TTITLE16=Clyde Wright - Oh Lord (I Want To Be)
TTITLE17=The New Orleans Spiritualettes - He's Calling Me
TTITLE18=The Heavenly Stars - Amazing Grace
TTITLE19=Eddie Holman - Holy Ghost
EXTD=YEAR: 2001
EXTT0=
EXTT1=
EXTT2=
EXTT3=
EXTT4=
EXTT5=
EXTT6=
EXTT7=
EXTT8=
EXTT9=
EXTT10=
EXTT11=
EXTT12=
EXTT13=
EXTT14=
EXTT15=
EXTT16=
EXTT17=
EXTT18=
EXTT19=
PLAYORDER=
